<svg width="140" height="95" viewBox="0 0 140 95" fill="none" xmlns="http://www.w3.org/2000/svg">
<ellipse opacity="0.3" cx="2.39986" cy="2.67154" rx="2.39986" ry="2.13321" fill="white"/>
<ellipse opacity="0.3" cx="21.5988" cy="2.67154" rx="2.39986" ry="2.13321" fill="white"/>
<circle opacity="0.3" cx="40.531" cy="2.67154" r="2.13321" fill="white"/>
<circle opacity="0.3" cx="59.7299" cy="2.67154" r="2.13321" fill="white"/>
<circle opacity="0.3" cx="78.9289" cy="2.67154" r="2.13321" fill="white"/>
<circle opacity="0.3" cx="98.1277" cy="2.67154" r="2.13321" fill="white"/>
<circle opacity="0.3" cx="117.327" cy="2.67154" r="2.13321" fill="white"/>
<circle opacity="0.3" cx="136.526" cy="2.67154" r="2.13321" fill="white"/>
<ellipse opacity="0.3" cx="2.39986" cy="15.4709" rx="2.39986" ry="2.13321" fill="white"/>
<ellipse opacity="0.3" cx="21.5988" cy="15.4709" rx="2.39986" ry="2.13321" fill="white"/>
<circle opacity="0.3" cx="40.531" cy="15.4709" r="2.13321" fill="white"/>
<circle opacity="0.3" cx="59.7299" cy="15.4709" r="2.13321" fill="white"/>
<circle opacity="0.3" cx="78.9289" cy="15.4709" r="2.13321" fill="white"/>
<circle opacity="0.3" cx="98.1277" cy="15.4709" r="2.13321" fill="white"/>
<circle opacity="0.3" cx="117.327" cy="15.4709" r="2.13321" fill="white"/>
<circle opacity="0.3" cx="136.526" cy="15.4709" r="2.13321" fill="white"/>
<ellipse opacity="0.3" cx="2.39986" cy="28.2702" rx="2.39986" ry="2.13321" fill="white"/>
<ellipse opacity="0.3" cx="21.5988" cy="28.2702" rx="2.39986" ry="2.13321" fill="white"/>
<circle opacity="0.3" cx="40.531" cy="28.2702" r="2.13321" fill="white"/>
<circle opacity="0.3" cx="59.7299" cy="28.2702" r="2.13321" fill="white"/>
<circle opacity="0.3" cx="78.9289" cy="28.2702" r="2.13321" fill="white"/>
<circle opacity="0.3" cx="98.1277" cy="28.2702" r="2.13321" fill="white"/>
<circle opacity="0.3" cx="117.327" cy="28.2702" r="2.13321" fill="white"/>
<circle opacity="0.3" cx="136.526" cy="28.2702" r="2.13321" fill="white"/>
<ellipse opacity="0.3" cx="2.39986" cy="41.0695" rx="2.39986" ry="2.13321" fill="white"/>
<ellipse opacity="0.3" cx="21.5988" cy="41.0695" rx="2.39986" ry="2.13321" fill="white"/>
<circle opacity="0.3" cx="40.531" cy="41.0695" r="2.13321" fill="white"/>
<circle opacity="0.3" cx="59.7299" cy="41.0695" r="2.13321" fill="white"/>
<circle opacity="0.3" cx="78.9289" cy="41.0695" r="2.13321" fill="white"/>
<circle opacity="0.3" cx="98.1277" cy="41.0695" r="2.13321" fill="white"/>
<circle opacity="0.3" cx="117.327" cy="41.0695" r="2.13321" fill="white"/>
<circle opacity="0.3" cx="136.526" cy="41.0695" r="2.13321" fill="white"/>
<ellipse opacity="0.3" cx="2.39986" cy="53.8686" rx="2.39986" ry="2.13321" fill="white"/>
<ellipse opacity="0.3" cx="21.5988" cy="53.8686" rx="2.39986" ry="2.13321" fill="white"/>
<circle opacity="0.3" cx="40.531" cy="53.8686" r="2.13321" fill="white"/>
<circle opacity="0.3" cx="59.7299" cy="53.8686" r="2.13321" fill="white"/>
<circle opacity="0.3" cx="78.9289" cy="53.8686" r="2.13321" fill="white"/>
<circle opacity="0.3" cx="98.1277" cy="53.8686" r="2.13321" fill="white"/>
<circle opacity="0.3" cx="117.327" cy="53.8686" r="2.13321" fill="white"/>
<circle opacity="0.3" cx="136.526" cy="53.8686" r="2.13321" fill="white"/>
<ellipse opacity="0.3" cx="2.39986" cy="66.6679" rx="2.39986" ry="2.13321" fill="white"/>
<ellipse opacity="0.3" cx="21.5988" cy="66.6679" rx="2.39986" ry="2.13321" fill="white"/>
<circle opacity="0.3" cx="40.531" cy="66.6679" r="2.13321" fill="white"/>
<circle opacity="0.3" cx="59.7299" cy="66.6679" r="2.13321" fill="white"/>
<circle opacity="0.3" cx="78.9289" cy="66.6679" r="2.13321" fill="white"/>
<circle opacity="0.3" cx="98.1277" cy="66.6679" r="2.13321" fill="white"/>
<circle opacity="0.3" cx="117.327" cy="66.6679" r="2.13321" fill="white"/>
<circle opacity="0.3" cx="136.526" cy="66.6679" r="2.13321" fill="white"/>
<ellipse opacity="0.3" cx="2.39986" cy="79.4672" rx="2.39986" ry="2.13321" fill="white"/>
<ellipse opacity="0.3" cx="22.132" cy="79.4672" rx="2.39986" ry="2.13321" fill="white"/>
<circle opacity="0.3" cx="41.5976" cy="79.4672" r="2.13321" fill="white"/>
<circle opacity="0.3" cx="60.7965" cy="79.4672" r="2.13321" fill="white"/>
<circle opacity="0.3" cx="79.9954" cy="79.4672" r="2.13321" fill="white"/>
<circle opacity="0.3" cx="99.1944" cy="79.4672" r="2.13321" fill="white"/>
<circle opacity="0.3" cx="118.393" cy="79.4672" r="2.13321" fill="white"/>
<circle opacity="0.3" cx="137.592" cy="79.4672" r="2.13321" fill="white"/>
<ellipse opacity="0.3" cx="2.39986" cy="92.2665" rx="2.39986" ry="2.13321" fill="white"/>
<ellipse opacity="0.3" cx="22.132" cy="92.2665" rx="2.39986" ry="2.13321" fill="white"/>
<circle opacity="0.3" cx="41.5976" cy="92.2665" r="2.13321" fill="white"/>
<circle opacity="0.3" cx="60.7965" cy="92.2665" r="2.13321" fill="white"/>
<circle opacity="0.3" cx="79.9954" cy="92.2665" r="2.13321" fill="white"/>
<circle opacity="0.3" cx="99.1944" cy="92.2665" r="2.13321" fill="white"/>
<circle opacity="0.3" cx="118.393" cy="92.2665" r="2.13321" fill="white"/>
<circle opacity="0.3" cx="137.592" cy="92.2665" r="2.13321" fill="white"/>
</svg>
